<svg width="18" height="23" viewBox="0 0 18 23" fill="none" xmlns="http://www.w3.org/2000/svg">
<path d="M7.33679 21.9678H10.7824" stroke="#00A29A" stroke-width="2" stroke-linecap="round" stroke-linejoin="round"/>
<path d="M11.6438 17.6819V16.6105C11.6438 15.3159 13.3419 14.0913 14.4434 13.2177C15.9961 11.9869 16.8123 10.3333 16.8123 8.39631C16.8123 4.82491 13.3812 1.9678 9.05959 1.9678C8.0407 1.96544 7.03129 2.13011 6.08941 2.45234C5.14753 2.77457 4.29175 3.248 3.57128 3.84541C2.85081 4.44282 2.27987 5.15243 1.89126 5.93344C1.50266 6.71445 1.30407 7.55144 1.30691 8.39631C1.30691 10.2641 2.15809 12.0298 3.67579 13.2177C4.77139 14.0753 6.47537 15.3025 6.47537 16.6105V17.6819" stroke="#00A29A" stroke-width="2" stroke-linecap="round" stroke-linejoin="round"/>
<path d="M6.47534 19.825H11.6438" stroke="#00A29A" stroke-width="2" stroke-linecap="round" stroke-linejoin="round"/>
<path d="M9.05957 17.682V11.9678" stroke="#00A29A" stroke-width="2" stroke-linecap="round" stroke-linejoin="round"/>
<path d="M11.1054 11.2537C11.1054 11.2537 9.94737 11.9679 9.05958 11.9679C8.17179 11.9679 7.01373 11.2537 7.01373 11.2537" stroke="#00A29A" stroke-width="2" stroke-linecap="round" stroke-linejoin="round"/>
</svg>
