<svg width="26" height="23" viewBox="0 0 26 23" fill="none" xmlns="http://www.w3.org/2000/svg">
<path d="M8.75256 21.1399H17.3666" stroke="#00A29A" stroke-width="2" stroke-linecap="round" stroke-linejoin="round"/>
<path d="M13.0596 21.1399V14.9861" stroke="#00A29A" stroke-width="2" stroke-linecap="round" stroke-linejoin="round"/>
<path d="M19.9509 9.60143C19.9509 7.16682 19.9466 3.12883 19.9444 1.90912C19.9444 1.70511 19.8537 1.50945 19.6921 1.3652C19.5306 1.22094 19.3115 1.13989 19.083 1.13989L7.03461 1.15239C6.80661 1.15239 6.58792 1.23311 6.42645 1.37684C6.26498 1.52058 6.17391 1.71562 6.1732 1.91922C6.1732 3.38941 6.1662 8.12932 6.1662 9.60143C6.1662 12.6918 10.6348 14.986 13.0575 14.986C15.4802 14.986 19.9509 12.6918 19.9509 9.60143Z" stroke="#00A29A" stroke-width="2" stroke-linecap="round" stroke-linejoin="round"/>
<path d="M6.16831 3.44751H1.86127V4.21674C1.86127 6.87155 3.66753 9.60136 6.16831 9.60136" stroke="#00A29A" stroke-width="2" stroke-linecap="round" stroke-linejoin="round"/>
<path d="M19.9508 3.44751H24.2579V4.21674C24.2579 6.87155 22.4516 9.60136 19.9508 9.60136" stroke="#00A29A" stroke-width="2" stroke-linecap="round" stroke-linejoin="round"/>
</svg>
