<svg width="26" height="23" viewBox="0 0 26 23" fill="none" xmlns="http://www.w3.org/2000/svg">
<path d="M23.0509 6.39701L13.6438 1.45723C13.4617 1.3617 13.2615 1.31201 13.0585 1.31201C12.8556 1.31201 12.6553 1.3617 12.4733 1.45723L3.0662 6.39701C2.70556 6.58501 2.40152 6.87655 2.18842 7.23871C1.97531 7.60086 1.86164 8.0192 1.86023 8.44647V19.0208C1.86023 20.2861 2.83685 21.312 4.04175 21.312H22.0775C23.2824 21.312 24.259 20.2861 24.259 19.0208V8.44647C24.2574 8.01896 24.1434 7.60045 23.9299 7.23827C23.7164 6.87609 23.4119 6.58469 23.0509 6.39701V6.39701Z" stroke="#00A29A" stroke-width="2" stroke-linecap="round" stroke-linejoin="round"/>
<path d="M20.6675 17.6461L13.7084 11.8873C13.4816 11.6996 13.2025 11.5977 12.9151 11.5977C12.6278 11.5977 12.3486 11.6996 12.1218 11.8873L5.16217 17.6461" stroke="#00A29A" stroke-width="2" stroke-linecap="round" stroke-linejoin="round"/>
<path d="M15.9297 13.465L23.2517 7.56519" stroke="#00A29A" stroke-width="2" stroke-linecap="round" stroke-linejoin="round"/>
<path d="M2.57794 7.56519L10.0614 13.5795" stroke="#00A29A" stroke-width="2" stroke-linecap="round" stroke-linejoin="round"/>
</svg>
