<svg width="31" height="34" viewBox="0 0 31 34" fill="none" xmlns="http://www.w3.org/2000/svg">
<path d="M12.1893 3.26667L11.9057 2.7428C11.8019 2.55116 11.6811 2.36918 11.5446 2.19906C10.9297 1.43875 10.0084 1 8.89629 1C7.83501 1 6.973 1.4087 6.36628 2.0894C5.75205 2.7785 5.3505 3.80473 5.3505 5.1V15.3C5.3505 16.4309 6.25558 17.1333 7.19162 17.1333H7.20252L7.20252 17.1334C7.44399 17.136 7.68349 17.0905 7.90695 16.9996C8.1304 16.9088 8.33321 16.7744 8.50357 16.6045C8.67392 16.4346 8.80838 16.2326 8.89921 16.0106C8.99003 15.7885 9.03542 15.5506 9.0328 15.311L9.03268 15.3H9.03274V4.53333C9.03274 4.49886 9.01903 4.46524 8.99374 4.44002C8.96836 4.41471 8.93336 4.4 8.89629 4.4C8.85922 4.4 8.82422 4.41471 8.79884 4.44002C8.77355 4.46524 8.75984 4.49886 8.75984 4.53333V15.2877C8.76386 15.493 8.72698 15.6971 8.65131 15.8881C8.57312 16.0854 8.45521 16.2645 8.30504 16.4143C8.15489 16.564 7.97567 16.6813 7.77857 16.7589C7.58607 16.8348 7.38042 16.8713 7.17375 16.8665C6.93678 16.8634 6.59662 16.797 6.28373 16.5831C5.90677 16.3254 5.6234 15.8837 5.6234 15.3V5.1C5.6234 4.29313 5.79569 3.36907 6.29997 2.61415C6.83823 1.80838 7.71372 1.26667 8.89629 1.26667C9.6011 1.26667 10.2061 1.44815 10.7003 1.78157C11.1877 2.11035 11.5094 2.54739 11.7198 2.97271C12.127 3.79556 12.1692 4.67804 12.1692 5.05608V14.8842C12.1692 16.3228 11.7169 17.6896 10.8225 18.6973C9.8983 19.7394 8.61936 20.2667 7.19162 20.2667C5.76388 20.2667 4.48494 19.7394 3.56069 18.6973C2.66635 17.6896 2.21406 16.3228 2.21406 14.8842V9.06667C2.21406 9.03219 2.20035 8.99857 2.17506 8.97335M12.1893 3.26667L2.17506 8.97335M12.1893 3.26667H12.7851M12.1893 3.26667H12.7851M2.17506 8.97335C2.14968 8.94805 2.11468 8.93333 2.07761 8.93333C2.04054 8.93333 2.00553 8.94805 1.98015 8.97336C1.95487 8.99857 1.94116 9.03219 1.94116 9.06667V14.8842C1.94116 18.0725 3.95733 20.2843 6.7062 20.5127L7.6234 20.5889V21.5093V29.4667C7.6234 30.4029 7.9963 31.3013 8.66096 31.9641L7.95483 32.6722M2.17506 8.97335L7.95483 32.6722M7.95483 32.6722L8.66096 31.9641M7.95483 32.6722L8.66096 31.9641M12.7851 3.26667H15.8514V12.4667C15.8514 13.6345 16.3166 14.754 17.1439 15.5789C17.971 16.4038 19.0922 16.8667 20.2608 16.8667H29.4888M12.7851 3.26667L29.4888 16.8667M29.4888 16.8667V29.4667C29.4888 30.4029 29.1159 31.3013 28.4512 31.9641C27.7865 32.6271 26.8843 33 25.943 33H11.1692C10.2279 33 9.32572 32.6271 8.66096 31.9641M29.4888 16.8667L8.66096 31.9641" stroke="#00A29A" stroke-width="2"/>
<path d="M19.6963 3.37398L19.6964 3.37361M19.6963 3.37398L19.6951 3.3799L19.6964 3.37361M19.6963 3.37398L19.6964 3.37361M19.6963 3.37398L19.6964 3.37361M29.5376 13.6218L29.5356 13.6189L29.5376 13.6218ZM29.5376 13.6218L29.5423 13.6284M29.5376 13.6218L29.5423 13.6284M29.5423 13.6284L29.5423 13.6236L29.5422 13.6174L29.5429 13.6173V13.6238V13.6292V13.7619L29.5423 13.6284ZM20.5602 12.6227V5.51949L27.524 12.7619H20.6556C20.6432 12.7619 20.623 12.7572 20.6019 12.7351L19.887 13.4224L20.6019 12.7351C20.5794 12.7118 20.5602 12.672 20.5602 12.6227Z" stroke="#00A29A" stroke-width="2"/>
</svg>
