<svg width="40" height="36" viewBox="0 0 40 36" fill="none" xmlns="http://www.w3.org/2000/svg">
<path d="M11.7795 8.16163C11.7795 8.94287 11.7795 9.70008 12.0259 10.4092C9.43573 13.4501 2.59679 21.4849 1.95977 22.0979C1.83317 22.2115 1.73189 22.3504 1.66252 22.5057C1.59315 22.661 1.55724 22.8292 1.55713 22.9993C1.55713 23.5101 1.86963 24.0029 2.13405 24.2793C2.53069 24.694 4.2254 26.2625 4.5379 25.962C5.46338 25.0606 5.64968 24.8202 6.02828 24.4476C6.5992 23.8887 5.96819 22.7469 6.1665 22.2842C6.36482 21.8214 6.57516 21.7313 6.91771 21.6592C7.26025 21.587 7.86722 21.8334 8.34198 21.8394C8.84078 21.8455 9.11121 21.6351 9.48381 21.2866C9.78429 21.0101 10.0006 20.7517 10.0066 20.3491C10.0187 19.8082 9.23742 19.0931 9.82035 18.5222C10.4033 17.9512 11.2446 18.8947 11.8636 18.8226C12.4826 18.7505 13.2338 17.8911 13.3119 17.5246C13.3901 17.158 12.6088 16.2145 12.729 15.6796C12.7711 15.4993 13.1377 15.0787 13.4141 15.0186C13.6905 14.9585 14.9165 15.4332 15.1929 15.3731C15.5295 15.301 15.9201 14.9464 16.2386 14.7481C17.1701 15.1508 18.0175 15.313 19.1052 15.313C23.2218 15.313 26.5571 12.1039 26.5571 8.14961C26.5571 4.1953 23.2218 1 19.1052 1C14.9886 1 11.7795 4.20732 11.7795 8.16163ZM22.711 6.7692C22.711 7.14955 22.5982 7.52136 22.3869 7.8376C22.1756 8.15385 21.8752 8.40033 21.5238 8.54589C21.1724 8.69144 20.7858 8.72952 20.4127 8.65532C20.0397 8.58112 19.697 8.39796 19.4281 8.12902C19.1591 7.86007 18.976 7.51741 18.9018 7.14438C18.8276 6.77134 18.8657 6.38467 19.0112 6.03328C19.1568 5.68188 19.4032 5.38154 19.7195 5.17023C20.0357 4.95892 20.4075 4.84614 20.7879 4.84614C21.2979 4.84614 21.7871 5.04874 22.1477 5.40939C22.5084 5.77003 22.711 6.25917 22.711 6.7692Z" stroke="#00A29A" stroke-width="2" stroke-linejoin="round"/>
<path d="M28.3348 27.8384C28.3348 27.0571 28.3348 26.2999 28.0884 25.5908C30.6785 22.5499 37.5175 14.5151 38.1545 13.9021C38.2811 13.7886 38.3824 13.6496 38.4517 13.4943C38.5211 13.339 38.557 13.1708 38.5571 13.0007C38.5571 12.4899 38.2446 11.9971 37.9802 11.7207C37.5836 11.306 35.8889 9.7375 35.5764 10.038C34.6509 10.9394 34.4646 11.1798 34.086 11.5524C33.5151 12.1113 34.1461 13.2531 33.9478 13.7158C33.7494 14.1786 33.5391 14.2687 33.1966 14.3408C32.854 14.413 32.247 14.1666 31.7723 14.1606C31.2735 14.1545 31.003 14.3649 30.6304 14.7134C30.33 14.9899 30.1136 15.2483 30.1076 15.6509C30.0956 16.1918 30.8768 16.9069 30.2939 17.4778C29.711 18.0488 28.8696 17.1053 28.2506 17.1774C27.6316 17.2495 26.8804 18.1089 26.8023 18.4754C26.7242 18.842 27.5054 19.7855 27.3853 20.3204C27.3432 20.5007 26.9766 20.9213 26.7002 20.9814C26.4237 21.0415 25.1978 20.5668 24.9213 20.6269C24.5848 20.699 24.1941 21.0536 23.8756 21.2519C22.9441 20.8492 22.0968 20.687 21.0091 20.687C16.8925 20.687 13.5571 23.8961 13.5571 27.8504C13.5571 31.8047 16.8925 35 21.0091 35C25.1256 35 28.3348 31.7927 28.3348 27.8384ZM17.4033 29.2308C17.4033 28.8504 17.5161 28.4786 17.7274 28.1624C17.9387 27.8461 18.239 27.5997 18.5904 27.4541C18.9418 27.3086 19.3285 27.2705 19.7015 27.3447C20.0746 27.4189 20.4172 27.602 20.6862 27.871C20.9551 28.1399 21.1383 28.4826 21.2125 28.8556C21.2867 29.2287 21.2486 29.6153 21.1031 29.9667C20.9575 30.3181 20.711 30.6185 20.3948 30.8298C20.0785 31.0411 19.7067 31.1539 19.3264 31.1539C18.8163 31.1539 18.3272 30.9513 17.9665 30.5906C17.6059 30.23 17.4033 29.7408 17.4033 29.2308Z" stroke="#00A29A" stroke-width="2" stroke-linejoin="round"/>
</svg>
