<svg width="35" height="34" viewBox="0 0 35 34" fill="none" xmlns="http://www.w3.org/2000/svg">
<path d="M5.31006 20.7812V7.10938H29.8726V20.7812H5.31006Z" stroke="#00A29A" stroke-width="2"/>
<path d="M17.8056 2.42696V3.42696H18.8056H30.9478C31.6489 3.4278 32.3208 3.70648 32.8164 4.20167L33.5232 3.49433L32.8164 4.20167C33.312 4.69694 33.5906 5.36831 33.5913 6.06844V21.8416C33.5906 22.5417 33.312 23.2131 32.8164 23.7084C32.3207 24.2037 31.6486 24.4824 30.9474 24.4831H27.701H26.375L26.7395 25.758L28.7256 32.7051L28.7283 32.7146L28.7312 32.724C28.7395 32.7511 28.7424 32.7795 28.7396 32.8077C28.7367 32.8358 28.7283 32.8632 28.7148 32.8881C28.7013 32.913 28.6829 32.935 28.6607 32.9528L29.2863 33.733L28.6607 32.9528C28.6385 32.9706 28.6129 32.9839 28.5854 32.9917C28.558 32.9996 28.5292 33.0019 28.5008 32.9985C28.4725 32.9951 28.4451 32.9861 28.4203 32.972L27.9268 33.8418L28.4203 32.972C28.3955 32.9579 28.3738 32.9391 28.3564 32.9166C28.3391 32.8941 28.3264 32.8685 28.3192 32.8411L28.3167 32.8319L28.3141 32.8228L26.1367 25.2082L25.9294 24.4831H25.1753H18.8056H17.8056V25.4831V29.1235C17.8056 29.1799 17.7832 29.2342 17.7431 29.2743C17.7029 29.3144 17.6484 29.337 17.5913 29.337C17.5343 29.337 17.4797 29.3144 17.4396 29.2743C17.3994 29.2342 17.377 29.1799 17.377 29.1235V25.4831V24.4831H16.377H10.0073H9.2532L9.04587 25.2082L6.8685 32.8228L6.86589 32.8319L6.86345 32.8411C6.85618 32.8685 6.84352 32.8941 6.82618 32.9166C6.80883 32.9391 6.78714 32.9579 6.76234 32.972L7.25586 33.8418L6.76232 32.972C6.73754 32.9861 6.71016 32.9951 6.68178 32.9985C6.65339 33.0019 6.62463 32.9996 6.59719 32.9917C6.56972 32.9839 6.54415 32.9706 6.52193 32.9528L5.89637 33.733L6.52192 32.9528C6.49972 32.935 6.48133 32.913 6.4678 32.8881L5.58896 33.3652L6.4678 32.8881C6.45427 32.8632 6.44587 32.8358 6.44305 32.8077C6.44024 32.7795 6.44307 32.7511 6.45139 32.724L6.45428 32.7146L6.45698 32.7051L8.4431 25.758L8.80757 24.4831H7.48162H4.2352C3.53401 24.4824 2.86188 24.2037 2.36626 23.7084C1.87077 23.2132 1.59216 22.542 1.59131 21.8421V6.06797C1.59216 5.36801 1.87077 4.69683 2.36626 4.20167C2.86178 3.70648 3.53374 3.4278 4.23478 3.42696H16.377H17.377V2.42696V1.21348C17.377 1.15708 17.3994 1.10285 17.4396 1.06276L16.7389 0.361677L17.4396 1.06276C17.4797 1.02265 17.5343 1 17.5913 1C17.6484 1 17.7029 1.02265 17.7431 1.06276C17.7832 1.10285 17.8056 1.15708 17.8056 1.21348V2.42696ZM32.514 23.4081L31.8071 22.7007L32.514 23.4081C32.9293 22.993 33.1627 22.4299 33.1627 21.8426V6.0674C33.1627 5.48014 32.9293 4.91706 32.514 4.502C32.0986 4.08697 31.5355 3.85392 30.9485 3.85392H4.23417C3.64711 3.85392 3.08397 4.08697 2.66866 4.502C2.25333 4.91706 2.01988 5.48014 2.01988 6.0674V21.8426C2.01988 22.4299 2.25333 22.993 2.66866 23.4081C3.08398 23.8231 3.64712 24.0561 4.23417 24.0561H30.9485C31.5355 24.0561 32.0986 23.8231 32.514 23.4081Z" stroke="#00A29A" stroke-width="2"/>
</svg>
