<svg width="36" height="34" viewBox="0 0 36 34" fill="none" xmlns="http://www.w3.org/2000/svg">
<path d="M4.72295 33H3.32295C2.80002 33 2.32375 32.8206 1.99384 32.5378C1.66869 32.2591 1.52295 31.9172 1.52295 31.6V6.4C1.52295 6.08281 1.66869 5.7409 1.99384 5.4622C2.32375 5.17942 2.80002 5 3.32295 5H4.72295C5.24588 5 5.72215 5.17942 6.05206 5.4622C6.3772 5.7409 6.52295 6.08281 6.52295 6.4V31.6C6.52295 31.9172 6.3772 32.2591 6.05206 32.5378C5.72214 32.8206 5.24588 33 4.72295 33Z" stroke="#00A29A" stroke-width="2"/>
<path d="M16.1206 12.4012C16.3683 12.6764 16.5229 13.0702 16.5229 13.5V15H9.52295V13.5C9.52295 13.0702 9.67759 12.6764 9.92525 12.4012C10.1698 12.1295 10.4775 12 10.7729 12H15.2729C15.5684 12 15.8761 12.1295 16.1206 12.4012Z" stroke="#00A29A" stroke-width="2"/>
<path d="M17.5229 29.1562C17.5229 29.1148 17.5081 29.0751 17.4818 29.0458C17.4554 29.0165 17.4196 29 17.3823 29H8.66357C8.62628 29 8.59051 29.0165 8.56414 29.0458C8.53776 29.0751 8.52295 29.1148 8.52295 29.1562V31.5C8.52295 32.163 8.76 32.7989 9.18196 33.2678C9.60392 33.7366 10.1762 34 10.7729 34H15.2729C15.8697 34 16.442 33.7366 16.8639 33.2678C17.2859 32.7989 17.5229 32.163 17.5229 31.5V29.1562ZM9.92525 32.5988C9.67759 32.3236 9.52295 31.9298 9.52295 31.5V30H16.5229V31.5C16.5229 31.9298 16.3683 32.3236 16.1206 32.5988C15.8761 32.8705 15.5684 33 15.2729 33H10.7729C10.4775 33 10.1698 32.8705 9.92525 32.5988Z" stroke="#00A29A" stroke-width="2"/>
<path d="M9.52295 27V18H16.5229V27H9.52295Z" stroke="#00A29A" stroke-width="2"/>
<path d="M23.2949 33H20.9089C20.5471 33 20.1965 32.8539 19.9351 32.5879C19.6732 32.3213 19.5229 31.956 19.5229 31.5714V2.42857C19.5229 2.04404 19.6732 1.67874 19.9351 1.41213C20.1965 1.14613 20.5471 1 20.9089 1H23.2949C23.6567 1 24.0073 1.14613 24.2687 1.41213C24.5306 1.67874 24.6808 2.04404 24.6808 2.42857V31.5714C24.6808 31.956 24.5306 32.3213 24.2687 32.5879C24.0073 32.8539 23.6567 33 23.2949 33Z" stroke="#00A29A" stroke-width="2"/>
<path d="M32.2659 5.60309L32.2659 5.6033L34.5187 31.4608C34.5187 31.4608 34.5187 31.4609 34.5187 31.461C34.5721 32.0763 34.0911 32.6903 33.3733 32.7645L31.1479 32.9925L31.1459 32.9927C30.441 33.0664 29.8849 32.5781 29.8326 31.9759L29.8325 31.9757L27.5798 6.11819C27.5798 6.11812 27.5798 6.11805 27.5798 6.11798C27.5264 5.50277 28.0073 4.88882 28.7249 4.81452C28.725 4.81451 28.7251 4.8145 28.7252 4.81449L30.9506 4.58642L30.9526 4.58621C31.6575 4.51253 32.2136 5.0009 32.2659 5.60309Z" stroke="#00A29A" stroke-width="2"/>
</svg>
