<svg width="12" height="15" viewBox="0 0 12 15" fill="none" xmlns="http://www.w3.org/2000/svg">
<g opacity="0.85">
<rect y="12.6279" width="11.8797" height="1.55373" rx="0.776865" fill="white"/>
<path d="M8.96073 2.68799L0.988171 10.1474L0.505066 11.2389L1.6746 10.788L9.66678 3.34697L8.96073 2.68799Z" stroke="white" stroke-linecap="round" stroke-linejoin="round"/>
<path d="M10.5604 1.13224L10.215 1.45435L10.9211 2.11334L11.2665 1.79095C11.3571 1.7063 11.408 1.59153 11.408 1.47185C11.408 1.35218 11.3571 1.2374 11.2665 1.15275L11.2445 1.13224C11.1996 1.09032 11.1462 1.05706 11.0876 1.03437C11.0289 1.01168 10.966 1 10.9024 1C10.8389 1 10.776 1.01168 10.7173 1.03437C10.6586 1.05706 10.6053 1.09032 10.5604 1.13224Z" stroke="white" stroke-linecap="round" stroke-linejoin="round"/>
</g>
</svg>
