<svg width="21" height="25" viewBox="0 0 21 25" fill="none" xmlns="http://www.w3.org/2000/svg">
<path fill-rule="evenodd" clip-rule="evenodd" d="M17.062 8.87973C17.3432 9.15376 17.5012 9.52537 17.5012 9.91286V18.8077C17.5012 19.3891 17.2642 19.9467 16.8422 20.3579C16.4203 20.769 15.848 21 15.2512 21H4.75122C4.15448 21 3.58219 20.769 3.16023 20.3579C2.73827 19.9467 2.50122 19.3891 2.50122 18.8077V4.19231C2.50122 3.61087 2.73827 3.05325 3.16023 2.64211C3.58219 2.23097 4.15448 2 4.75122 2H9.38013C9.77781 2.00006 10.1592 2.15399 10.4404 2.42796L17.062 8.87973ZM9.01953 4H4.75122C4.6684 4 4.59909 4.03255 4.55596 4.07457C4.51459 4.11488 4.50122 4.15831 4.50122 4.19231V18.8077C4.50122 18.8417 4.51459 18.8851 4.55596 18.9254C4.59909 18.9674 4.66839 19 4.75122 19H15.2512C15.334 19 15.4034 18.9674 15.4465 18.9254C15.4878 18.8851 15.5012 18.8417 15.5012 18.8077V10.6408H10.5195C10.1217 10.6408 9.74018 10.4868 9.45887 10.2127C9.17757 9.9386 9.01953 9.56686 9.01953 9.17923V4ZM11.0195 5.7846V8.64077H13.9509L11.0195 5.7846Z" fill="#00A29A"/>
</svg>
