<svg width="21" height="25" viewBox="0 0 21 25" fill="none" xmlns="http://www.w3.org/2000/svg">
<path d="M7.02438 10.7174L10.5875 16.9359C10.8551 17.3865 11.2879 17.7129 11.7923 17.8448C12.2968 17.9767 12.8325 17.9035 13.2838 17.6409C13.7351 17.3784 14.0659 16.9475 14.2048 16.4414C14.3437 15.9352 14.2794 15.3944 14.026 14.9355L9.36134 6.78148C9.14333 6.3901 8.85038 6.04622 8.49949 5.76977C8.1486 5.49332 7.74674 5.2898 7.3172 5.17101C6.88766 5.05222 6.439 5.02052 5.99722 5.07776C5.55543 5.13499 5.12932 5.28001 4.74357 5.50442C4.35783 5.72883 4.02012 6.02815 3.75004 6.38505C3.47996 6.74194 3.28287 7.14931 3.1702 7.58353C3.05753 8.01775 3.03152 8.47018 3.09367 8.9146C3.15583 9.35903 3.30491 9.7866 3.53229 10.1725L8.234 18.3782C8.53966 18.9299 8.95112 19.415 9.44447 19.805C9.93781 20.1951 10.5032 20.4825 11.1077 20.6504C11.7123 20.8184 12.3439 20.8636 12.966 20.7834C13.588 20.7032 14.188 20.4992 14.7311 20.1832C15.2742 19.8673 15.7495 19.4457 16.1294 18.943C16.5094 18.4403 16.7864 17.8665 16.9443 17.255C17.1022 16.6435 17.1379 16.0065 17.0493 15.3809C16.9607 14.7554 16.7496 14.1538 16.4282 13.6112L12.0346 5.94331" stroke="#00A29A" stroke-width="2" stroke-miterlimit="10" stroke-linecap="round"/>
</svg>
