<svg width="131" height="13" viewBox="0 0 131 13" fill="none" xmlns="http://www.w3.org/2000/svg">
<path d="M6.4121 0.0812988H7.78506V6.96321C7.78506 7.53528 7.80794 7.98149 7.8537 8.30184C7.91091 8.6222 8.00244 8.90823 8.12829 9.15993C8.31135 9.52606 8.58022 9.82353 8.9349 10.0524C9.30102 10.2697 9.69002 10.3784 10.1019 10.3784C10.5138 10.3784 10.9028 10.2697 11.2689 10.0524C11.635 9.83497 11.9096 9.54322 12.0927 9.1771C12.1613 9.05124 12.2128 8.92539 12.2471 8.79953C12.2929 8.66224 12.3272 8.50778 12.3501 8.33616C12.373 8.16455 12.3902 7.97004 12.4016 7.75266C12.413 7.52384 12.4188 7.25497 12.4188 6.94605V0.0812988H13.7746V6.91173C13.7746 7.4037 13.7631 7.82131 13.7402 8.16455C13.7173 8.50778 13.6716 8.81098 13.6029 9.07413C13.5343 9.33727 13.4428 9.57182 13.3283 9.77776C13.2139 9.98371 13.0709 10.1896 12.8993 10.3956C12.5675 10.796 12.1556 11.1164 11.6636 11.3567C11.1717 11.5855 10.6568 11.6999 10.1191 11.6999C8.9063 11.6999 7.89947 11.1679 7.09858 10.1038C6.28625 11.1679 5.27942 11.6999 4.07809 11.6999C3.54035 11.6999 3.02549 11.5855 2.53352 11.3567C2.04154 11.1164 1.62966 10.796 1.29786 10.3956C1.12624 10.1896 0.983229 9.98371 0.868816 9.77776C0.754404 9.57182 0.662874 9.33727 0.594226 9.07413C0.525579 8.81098 0.479814 8.50778 0.456931 8.16455C0.434049 7.82131 0.422607 7.4037 0.422607 6.91173V0.0812988H1.7784V6.94605C1.7784 7.25497 1.78412 7.52384 1.79556 7.75266C1.807 7.97004 1.82416 8.16455 1.84704 8.33616C1.86993 8.50778 1.89853 8.66224 1.93285 8.79953C1.97862 8.92539 2.03582 9.05124 2.10447 9.1771C2.28753 9.54322 2.56212 9.83497 2.92824 10.0524C3.29436 10.2697 3.68336 10.3784 4.09525 10.3784C4.50714 10.3784 4.89042 10.2697 5.2451 10.0524C5.61122 9.82353 5.88581 9.52606 6.06887 9.15993C6.19472 8.90823 6.28053 8.6222 6.3263 8.30184C6.3835 7.98149 6.4121 7.53528 6.4121 6.96321V0.0812988Z" fill="url(#paint0_linear)"/>
<path d="M19.2774 3.11895C19.8724 3.11895 20.4273 3.23337 20.9421 3.46219C21.457 3.67957 21.9032 3.98849 22.2808 4.38893C22.6698 4.77793 22.973 5.23558 23.1904 5.76188C23.4192 6.28818 23.5336 6.85452 23.5336 7.46091C23.5336 8.03297 23.4192 8.57643 23.1904 9.09129C22.9615 9.60614 22.6526 10.0581 22.2636 10.4471C21.8746 10.8246 21.417 11.1278 20.8907 11.3567C20.3758 11.574 19.8266 11.6827 19.2431 11.6827C18.6482 11.6827 18.0876 11.574 17.5613 11.3567C17.0464 11.1278 16.5945 10.8189 16.2055 10.4299C15.8165 10.0409 15.5075 9.58898 15.2787 9.07413C15.0613 8.54783 14.9526 7.98721 14.9526 7.39226C14.9526 6.79732 15.0613 6.24241 15.2787 5.72756C15.5075 5.20126 15.8165 4.74933 16.2055 4.37177C16.6059 3.98277 17.0636 3.67957 17.5784 3.46219C18.1047 3.23337 18.6711 3.11895 19.2774 3.11895ZM19.2603 4.2688C18.8255 4.2688 18.4193 4.35461 18.0418 4.52623C17.6757 4.6864 17.3496 4.90951 17.0636 5.19554C16.789 5.47013 16.5716 5.80193 16.4114 6.19093C16.2512 6.56849 16.1711 6.97466 16.1711 7.40942C16.1711 7.84419 16.2512 8.25035 16.4114 8.62792C16.5716 9.00548 16.789 9.33727 17.0636 9.62331C17.3496 9.8979 17.6757 10.121 18.0418 10.2926C18.4193 10.4528 18.8198 10.5329 19.2431 10.5329C19.655 10.5329 20.044 10.4528 20.4101 10.2926C20.7877 10.1324 21.1138 9.91506 21.3884 9.64047C21.6744 9.35444 21.8975 9.02836 22.0577 8.66224C22.2293 8.28468 22.3151 7.88996 22.3151 7.47807C22.3151 7.03186 22.235 6.61426 22.0748 6.22525C21.9147 5.83625 21.6973 5.49873 21.4227 5.2127C21.1481 4.91523 20.822 4.6864 20.4445 4.52623C20.0783 4.35461 19.6836 4.2688 19.2603 4.2688Z" fill="url(#paint1_linear)"/>
<path d="M24.4913 7.40942C24.4913 7.03186 24.5084 6.69434 24.5428 6.39687C24.5771 6.0994 24.6286 5.83053 24.6972 5.59026C24.7773 5.33856 24.8745 5.10973 24.989 4.90379C25.1148 4.69785 25.2635 4.49762 25.4352 4.30312C25.7784 3.92556 26.1789 3.63381 26.6365 3.42787C27.1056 3.22192 27.609 3.11895 28.1467 3.11895C28.6845 3.11895 29.1822 3.22192 29.6398 3.42787C30.1089 3.63381 30.5151 3.92556 30.8583 4.30312C31.0299 4.49762 31.173 4.69785 31.2874 4.90379C31.4132 5.10973 31.5105 5.33856 31.5791 5.59026C31.6592 5.83053 31.7164 6.0994 31.7507 6.39687C31.7851 6.69434 31.8022 7.03186 31.8022 7.40942V11.5283H30.6352V7.30645C30.6352 6.75727 30.5723 6.29962 30.4464 5.9335C30.332 5.56738 30.1432 5.25275 29.8801 4.9896C29.3767 4.50907 28.7989 4.2688 28.1467 4.2688C27.7463 4.2688 27.363 4.37177 26.9969 4.57771C26.6308 4.77221 26.3333 5.03536 26.1045 5.36716C25.807 5.80193 25.6583 6.44836 25.6583 7.30645V11.5283H24.4913V7.40942Z" fill="url(#paint2_linear)"/>
<path d="M40.154 0.0812988H41.3382V6.41403C41.3382 6.8488 41.321 7.2378 41.2867 7.58104C41.2523 7.92428 41.2009 8.23891 41.1322 8.52495C41.0636 8.79953 40.972 9.05696 40.8576 9.29723C40.7432 9.5375 40.6059 9.76632 40.4457 9.98371C40.0567 10.51 39.559 10.9276 38.9527 11.2365C38.3577 11.534 37.7227 11.6827 37.0477 11.6827C36.4642 11.6827 35.9093 11.574 35.383 11.3567C34.8681 11.1278 34.4162 10.8189 34.0272 10.4299C33.6382 10.0409 33.3293 9.58898 33.1005 9.07413C32.8831 8.54783 32.7744 7.98721 32.7744 7.39226C32.7744 6.79732 32.8831 6.24241 33.1005 5.72756C33.3293 5.20126 33.6325 4.74933 34.01 4.37177C34.399 3.98277 34.851 3.67957 35.3658 3.46219C35.8921 3.23337 36.4527 3.11895 37.0477 3.11895C37.5625 3.11895 38.0259 3.1876 38.4378 3.3249C38.8497 3.46219 39.273 3.69674 39.7078 4.02853V5.50445C39.273 5.08113 38.8382 4.77221 38.4035 4.57771C37.9687 4.37177 37.5111 4.2688 37.0305 4.2688C36.6186 4.2688 36.2239 4.35461 35.8464 4.52623C35.4802 4.6864 35.1599 4.90951 34.8853 5.19554C34.6107 5.47013 34.3933 5.80193 34.2331 6.19093C34.073 6.56849 33.9929 6.97466 33.9929 7.40942C33.9929 7.84419 34.073 8.25035 34.2331 8.62792C34.3933 9.00548 34.6107 9.33727 34.8853 9.62331C35.1713 9.8979 35.4974 10.121 35.8635 10.2926C36.2411 10.4528 36.6415 10.5329 37.0649 10.5329C37.5683 10.5329 38.0545 10.407 38.5236 10.1553C38.9927 9.90362 39.3588 9.5661 39.622 9.14277C39.7249 8.9826 39.8108 8.82242 39.8794 8.66224C39.948 8.49062 39.9995 8.29612 40.0339 8.07874C40.0796 7.86135 40.1082 7.62109 40.1197 7.35794C40.1425 7.08335 40.154 6.76299 40.154 6.39687V0.0812988Z" fill="url(#paint3_linear)"/>
<path d="M49.8071 10.9104C49.2007 11.185 48.6573 11.3853 48.1767 11.5111C47.6962 11.6255 47.1985 11.6827 46.6836 11.6827C46.0544 11.6827 45.4652 11.574 44.916 11.3567C44.3782 11.1393 43.9091 10.8361 43.5087 10.4471C43.1083 10.0581 42.7936 9.60042 42.5648 9.07413C42.336 8.54783 42.2216 7.98149 42.2216 7.3751C42.2216 6.7916 42.3302 6.24241 42.5476 5.72756C42.7765 5.20126 43.0854 4.74933 43.4744 4.37177C43.8634 3.98277 44.3153 3.67957 44.8302 3.46219C45.3565 3.23337 45.9171 3.11895 46.512 3.11895C47.3358 3.11895 48.068 3.31345 48.7087 3.70246C49.3609 4.09146 49.8872 4.6578 50.2876 5.40148L44.6242 9.82925C44.956 10.0924 45.2707 10.2755 45.5681 10.3784C45.877 10.4814 46.2603 10.5329 46.718 10.5329C46.9354 10.5329 47.1413 10.5214 47.3358 10.4986C47.5417 10.4757 47.7534 10.4356 47.9708 10.3784C48.1882 10.3098 48.417 10.2297 48.6573 10.1382C48.8975 10.0352 49.1721 9.90934 49.481 9.7606L49.8071 10.9104ZM48.6916 5.2127C48.3941 4.84658 48.0738 4.58343 47.7305 4.42325C47.3987 4.25164 46.9983 4.16583 46.5292 4.16583C46.0944 4.16583 45.6883 4.25164 45.3107 4.42325C44.9331 4.58343 44.6013 4.81226 44.3153 5.10973C44.0407 5.39576 43.8233 5.739 43.6632 6.13944C43.503 6.52845 43.4229 6.94605 43.4229 7.39226C43.4229 7.55244 43.4286 7.70117 43.4401 7.83847C43.4629 7.96432 43.4915 8.09018 43.5259 8.21603C43.5602 8.33044 43.6059 8.45058 43.6632 8.57643C43.7318 8.70228 43.8119 8.83958 43.9034 8.98832L48.6916 5.2127Z" fill="url(#paint4_linear)"/>
<path d="M51.0228 7.61537C51.0228 7.22636 51.0342 6.88313 51.0571 6.58565C51.08 6.28818 51.12 6.01931 51.1772 5.77904C51.2344 5.53878 51.3088 5.32711 51.4003 5.14405C51.5033 4.94955 51.6234 4.75505 51.7607 4.56055C52.0925 4.11434 52.5158 3.76538 53.0307 3.51368C53.5455 3.25053 54.0833 3.11895 54.6439 3.11895C54.7011 3.11895 54.764 3.11895 54.8327 3.11895C54.9013 3.11895 54.9871 3.12467 55.0901 3.13611V4.32028C54.9986 4.30884 54.9128 4.30312 54.8327 4.30312C54.764 4.29168 54.7068 4.28596 54.6611 4.28596C54.2835 4.28596 53.9231 4.37749 53.5799 4.56055C53.2366 4.73217 52.9506 4.97244 52.7218 5.28135C52.5273 5.55594 52.39 5.86485 52.3099 6.20809C52.2298 6.55133 52.1898 7.02042 52.1898 7.61537V11.5283H51.0228V7.61537Z" fill="url(#paint5_linear)"/>
<path d="M55.8667 0.0812988H58.9558C59.402 0.0812988 59.7967 0.0984608 60.14 0.132785C60.4946 0.167109 60.815 0.218595 61.101 0.287242C61.3871 0.355889 61.6445 0.447419 61.8733 0.561831C62.1136 0.676245 62.3424 0.81926 62.5598 0.990879C63.0632 1.36844 63.4522 1.84325 63.7268 2.41532C64.0128 2.98738 64.1558 3.58804 64.1558 4.21731C64.1558 4.81226 64.0414 5.36716 63.8126 5.88202C63.5952 6.38543 63.292 6.82592 62.903 7.20348C62.514 7.58104 62.0507 7.87851 61.5129 8.0959C60.9866 8.30184 60.4146 8.40481 59.7967 8.40481C59.4306 8.40481 59.0931 8.37621 58.7842 8.319C58.4867 8.2618 58.1377 8.17027 57.7373 8.04441V6.63714C58.1377 6.79732 58.4867 6.91173 58.7842 6.98038C59.0816 7.04902 59.402 7.08335 59.7452 7.08335C60.1914 7.08335 60.6033 7.0147 60.9809 6.8774C61.3585 6.72867 61.6845 6.52845 61.9591 6.27674C62.2337 6.02503 62.4454 5.72756 62.5941 5.38432C62.7543 5.04108 62.8344 4.66352 62.8344 4.25164C62.8344 3.80543 62.7257 3.37638 62.5083 2.9645C62.3024 2.54117 62.022 2.21509 61.6674 1.98627C61.3699 1.79177 61.0209 1.64875 60.6205 1.55722C60.2201 1.45425 59.7338 1.40276 59.1617 1.40276H57.2224V11.5283H55.8667V0.0812988Z" fill="url(#paint6_linear)"/>
<path d="M72.0816 10.9104C71.4753 11.185 70.9318 11.3853 70.4513 11.5111C69.9707 11.6255 69.473 11.6827 68.9582 11.6827C68.3289 11.6827 67.7397 11.574 67.1905 11.3567C66.6528 11.1393 66.1837 10.8361 65.7832 10.4471C65.3828 10.0581 65.0682 9.60042 64.8393 9.07413C64.6105 8.54783 64.4961 7.98149 64.4961 7.3751C64.4961 6.7916 64.6048 6.24241 64.8222 5.72756C65.051 5.20126 65.3599 4.74933 65.7489 4.37177C66.1379 3.98277 66.5898 3.67957 67.1047 3.46219C67.631 3.23337 68.1916 3.11895 68.7866 3.11895C69.6103 3.11895 70.3426 3.31345 70.9833 3.70246C71.6354 4.09146 72.1617 4.6578 72.5622 5.40148L66.8988 9.82925C67.2306 10.0924 67.5452 10.2755 67.8427 10.3784C68.1516 10.4814 68.5349 10.5329 68.9925 10.5329C69.2099 10.5329 69.4158 10.5214 69.6103 10.4986C69.8163 10.4757 70.0279 10.4356 70.2453 10.3784C70.4627 10.3098 70.6915 10.2297 70.9318 10.1382C71.1721 10.0352 71.4466 9.90934 71.7556 9.7606L72.0816 10.9104ZM70.9661 5.2127C70.6686 4.84658 70.3483 4.58343 70.0051 4.42325C69.6733 4.25164 69.2728 4.16583 68.8037 4.16583C68.369 4.16583 67.9628 4.25164 67.5852 4.42325C67.2077 4.58343 66.8759 4.81226 66.5898 5.10973C66.3152 5.39576 66.0979 5.739 65.9377 6.13944C65.7775 6.52845 65.6974 6.94605 65.6974 7.39226C65.6974 7.55244 65.7031 7.70117 65.7146 7.83847C65.7375 7.96432 65.7661 8.09018 65.8004 8.21603C65.8347 8.33044 65.8805 8.45058 65.9377 8.57643C66.0063 8.70228 66.0864 8.83958 66.178 8.98832L70.9661 5.2127Z" fill="url(#paint7_linear)"/>
<path d="M80.5568 10.9104C79.9504 11.185 79.4069 11.3853 78.9264 11.5111C78.4458 11.6255 77.9482 11.6827 77.4333 11.6827C76.804 11.6827 76.2148 11.574 75.6656 11.3567C75.1279 11.1393 74.6588 10.8361 74.2583 10.4471C73.8579 10.0581 73.5433 9.60042 73.3144 9.07413C73.0856 8.54783 72.9712 7.98149 72.9712 7.3751C72.9712 6.7916 73.0799 6.24241 73.2973 5.72756C73.5261 5.20126 73.835 4.74933 74.224 4.37177C74.613 3.98277 75.065 3.67957 75.5798 3.46219C76.1061 3.23337 76.6667 3.11895 77.2617 3.11895C78.0854 3.11895 78.8177 3.31345 79.4584 3.70246C80.1105 4.09146 80.6368 4.6578 81.0373 5.40148L75.3739 9.82925C75.7057 10.0924 76.0203 10.2755 76.3178 10.3784C76.6267 10.4814 77.01 10.5329 77.4676 10.5329C77.685 10.5329 77.8909 10.5214 78.0854 10.4986C78.2914 10.4757 78.5031 10.4356 78.7204 10.3784C78.9378 10.3098 79.1666 10.2297 79.4069 10.1382C79.6472 10.0352 79.9218 9.90934 80.2307 9.7606L80.5568 10.9104ZM79.4412 5.2127C79.1438 4.84658 78.8234 4.58343 78.4802 4.42325C78.1484 4.25164 77.7479 4.16583 77.2788 4.16583C76.8441 4.16583 76.4379 4.25164 76.0603 4.42325C75.6828 4.58343 75.351 4.81226 75.065 5.10973C74.7904 5.39576 74.573 5.739 74.4128 6.13944C74.2526 6.52845 74.1725 6.94605 74.1725 7.39226C74.1725 7.55244 74.1783 7.70117 74.1897 7.83847C74.2126 7.96432 74.2412 8.09018 74.2755 8.21603C74.3098 8.33044 74.3556 8.45058 74.4128 8.57643C74.4815 8.70228 74.5615 8.83958 74.6531 8.98832L79.4412 5.2127Z" fill="url(#paint8_linear)"/>
<path d="M81.7724 7.61537C81.7724 7.22636 81.7838 6.88313 81.8067 6.58565C81.8296 6.28818 81.8696 6.01931 81.9268 5.77904C81.9841 5.53878 82.0584 5.32711 82.15 5.14405C82.2529 4.94955 82.3731 4.75505 82.5104 4.56055C82.8421 4.11434 83.2655 3.76538 83.7803 3.51368C84.2952 3.25053 84.8329 3.11895 85.3936 3.11895C85.4508 3.11895 85.5137 3.11895 85.5823 3.11895C85.651 3.11895 85.7368 3.12467 85.8398 3.13611V4.32028C85.7482 4.30884 85.6624 4.30312 85.5823 4.30312C85.5137 4.29168 85.4565 4.28596 85.4107 4.28596C85.0332 4.28596 84.6728 4.37749 84.3295 4.56055C83.9863 4.73217 83.7002 4.97244 83.4714 5.28135C83.2769 5.55594 83.1396 5.86485 83.0595 6.20809C82.9795 6.55133 82.9394 7.02042 82.9394 7.61537V11.5283H81.7724V7.61537Z" fill="url(#paint9_linear)"/>
<path d="M84.7526 10.4471C84.8556 10.47 84.9357 10.4871 84.9929 10.4986C85.0501 10.4986 85.113 10.4986 85.1817 10.4986C85.4677 10.4986 85.7251 10.4299 85.954 10.2926C86.1942 10.1439 86.3773 9.93794 86.5031 9.67479C86.5718 9.52606 86.629 9.38876 86.6748 9.26291C86.7205 9.12561 86.7606 8.95971 86.7949 8.76521C86.8292 8.57071 86.8578 8.32472 86.8807 8.02725C86.9036 7.72978 86.9322 7.34078 86.9665 6.86024C87.0466 5.63603 87.3212 4.70357 87.7903 4.06286C88.2594 3.42215 88.9058 3.10179 89.7296 3.10179C89.8783 3.10179 90.0728 3.11895 90.3131 3.15328V4.30312C90.233 4.28024 90.1701 4.2688 90.1243 4.2688C90.0785 4.25736 90.027 4.25164 89.9698 4.25164C89.3406 4.25164 88.8829 4.49762 88.5969 4.9896C88.5282 5.12689 88.471 5.26419 88.4253 5.40148C88.3795 5.52734 88.3395 5.68179 88.3051 5.86485C88.2708 6.03647 88.2422 6.25958 88.2193 6.53417C88.1964 6.79732 88.1678 7.13483 88.1335 7.54672C88.0878 8.24463 88.0134 8.81098 87.9104 9.24574C87.8074 9.66907 87.653 10.0581 87.447 10.4128C87.2182 10.8132 86.915 11.1221 86.5375 11.3395C86.1713 11.5454 85.7595 11.6484 85.3018 11.6484C85.2103 11.6484 85.1245 11.6427 85.0444 11.6312C84.9757 11.6312 84.8785 11.6198 84.7526 11.5969V10.4471Z" fill="url(#paint10_linear)"/>
<path d="M97.4399 6.76217C97.9613 6.83409 98.4108 6.96894 98.7883 7.16671C98.9412 6.50148 99.0625 5.74186 99.1524 4.88785H98.4782C98.2714 5.65196 97.9253 6.27674 97.4399 6.76217ZM93.6373 5.84524H94.5947C94.9453 5.86322 95.1161 5.68343 95.1071 5.30587V3.95743H93.6373V5.84524ZM92.1001 1.86736V0.761645H96.523V1.86736H92.1001ZM91.9922 11.4278V10.1333C92.2889 10.1333 92.5811 10.1243 92.8687 10.1063C92.635 9.45005 92.4732 8.59604 92.3833 7.54427H93.6643C93.7182 8.44322 93.8621 9.27026 94.0958 10.0254C94.1048 10.0254 94.1183 10.0254 94.1362 10.0254C94.2801 10.0164 94.4329 9.99842 94.5947 9.97145C94.8284 9.22531 94.9723 8.42075 95.0262 7.55775H96.2803C96.1724 8.45671 96.0196 9.20733 95.8218 9.80964L96.8871 9.62085V10.6861C95.4397 11.1266 93.8081 11.3738 91.9922 11.4278ZM102.78 3.25625V2.13705H98.3164V3.18883H96.914V1.04482H99.6648V0.181819H101.404V1.04482H104.196V3.25625H102.78ZM92.2889 6.89702V2.89217H96.4286V5.49465C96.4556 6.45653 95.9611 6.92399 94.9453 6.89702H92.2889ZM96.6848 12.3447V11.0906C97.5208 10.1557 98.1051 9.2388 98.4378 8.33984C98.0242 8.07914 97.5837 7.88587 97.1163 7.76002V7.07231C96.9365 7.22514 96.7387 7.37796 96.523 7.53078V6.46552C97.1163 5.7104 97.4354 4.65412 97.4804 3.2967H98.7479L98.6805 3.82259H100.339V4.91482C100.222 8.14207 99.0041 10.6187 96.6848 12.3447ZM102.092 12.075C101.13 12.102 100.663 11.639 100.69 10.6861V3.82259H104.034V7.50381C104.079 8.45671 103.638 8.91068 102.712 8.86573H102.24V7.84092H102.51C102.762 7.84991 102.883 7.6881 102.874 7.35549V4.88785H101.917V10.349C101.89 10.8255 102.079 11.0457 102.483 11.0097H102.685C103.126 11.0277 103.337 10.821 103.319 10.3895V9.97145H104.357V10.6322C104.384 11.621 103.881 12.102 102.847 12.075H102.092Z" fill="url(#paint11_linear)"/>
<path d="M108.367 6.50597H113.761C114.3 6.53294 114.556 6.27674 114.529 5.73737V4.34848H108.367V6.50597ZM105.711 2.02917V0.86952H117.172V2.02917H105.711ZM105.333 11.8188V10.6591H108.394C108.026 9.99392 107.769 9.21183 107.625 8.31287H109.244C109.36 9.20284 109.599 9.98493 109.958 10.6591H112.803C113.172 9.95796 113.415 9.17587 113.532 8.31287H115.15C114.988 9.25678 114.727 10.0389 114.368 10.6591H117.563V11.8188H105.333ZM106.682 7.66563V3.20231H116.215V5.83176C116.242 7.0813 115.617 7.69259 114.341 7.66563H106.682Z" fill="url(#paint12_linear)"/>
<path d="M119.699 2.87869C119.519 2.01569 119.24 1.16618 118.863 0.330147H120.279C120.692 1.12123 120.98 1.97074 121.142 2.87869H119.699ZM119.847 6.03402C119.676 5.189 119.393 4.326 118.998 3.44503H120.4C120.823 4.29005 121.124 5.15304 121.304 6.03402H119.847ZM118.674 12.0615C119.366 10.3805 119.798 8.57357 119.969 6.64082H121.33C121.187 8.68145 120.832 10.4883 120.265 12.0615H118.674ZM130.729 12.0076C128.266 10.4614 126.944 8.04768 126.765 4.76649H128.154C128.225 5.46768 128.338 6.15538 128.491 6.8296C129.066 6.3981 129.421 5.7104 129.556 4.76649H130.756C130.567 6.30371 129.902 7.30604 128.76 7.7735C129.102 8.8073 129.758 9.80514 130.729 10.767V12.0076ZM124.607 12.2233V2.95959H127.924C128.697 2.98656 129.547 2.83374 130.473 2.50112V3.64729C129.763 3.94395 129.017 4.08329 128.234 4.06531H126.05V10.3355C126.481 10.2187 127.012 9.99842 127.641 9.67479V10.8075C126.76 11.4188 125.749 11.8907 124.607 12.2233ZM121.371 12.3447V11.1446C121.695 10.7041 121.915 10.2411 122.032 9.7557C122.149 9.27026 122.207 8.59604 122.207 7.73305V0.788614H127.992C128.828 0.806593 129.691 0.67175 130.581 0.384084V1.57071C129.799 1.79544 129.008 1.90332 128.207 1.89433H123.704V7.43639C123.812 9.73772 123.034 11.3738 121.371 12.3447Z" fill="url(#paint13_linear)"/>
<defs>
<linearGradient id="paint0_linear" x1="111.442" y1="-0.730197" x2="111.442" y2="15.2058" gradientUnits="userSpaceOnUse">
<stop stop-color="white" stop-opacity="0.95"/>
<stop offset="1" stop-color="white"/>
</linearGradient>
<linearGradient id="paint1_linear" x1="111.442" y1="-0.730197" x2="111.442" y2="15.2058" gradientUnits="userSpaceOnUse">
<stop stop-color="white" stop-opacity="0.95"/>
<stop offset="1" stop-color="white"/>
</linearGradient>
<linearGradient id="paint2_linear" x1="111.442" y1="-0.730197" x2="111.442" y2="15.2058" gradientUnits="userSpaceOnUse">
<stop stop-color="white" stop-opacity="0.95"/>
<stop offset="1" stop-color="white"/>
</linearGradient>
<linearGradient id="paint3_linear" x1="111.442" y1="-0.730197" x2="111.442" y2="15.2058" gradientUnits="userSpaceOnUse">
<stop stop-color="white" stop-opacity="0.95"/>
<stop offset="1" stop-color="white"/>
</linearGradient>
<linearGradient id="paint4_linear" x1="111.442" y1="-0.730197" x2="111.442" y2="15.2058" gradientUnits="userSpaceOnUse">
<stop stop-color="white" stop-opacity="0.95"/>
<stop offset="1" stop-color="white"/>
</linearGradient>
<linearGradient id="paint5_linear" x1="111.442" y1="-0.730197" x2="111.442" y2="15.2058" gradientUnits="userSpaceOnUse">
<stop stop-color="white" stop-opacity="0.95"/>
<stop offset="1" stop-color="white"/>
</linearGradient>
<linearGradient id="paint6_linear" x1="111.442" y1="-0.730197" x2="111.442" y2="15.2058" gradientUnits="userSpaceOnUse">
<stop stop-color="white" stop-opacity="0.95"/>
<stop offset="1" stop-color="white"/>
</linearGradient>
<linearGradient id="paint7_linear" x1="111.442" y1="-0.730197" x2="111.442" y2="15.2058" gradientUnits="userSpaceOnUse">
<stop stop-color="white" stop-opacity="0.95"/>
<stop offset="1" stop-color="white"/>
</linearGradient>
<linearGradient id="paint8_linear" x1="111.442" y1="-0.730197" x2="111.442" y2="15.2058" gradientUnits="userSpaceOnUse">
<stop stop-color="white" stop-opacity="0.95"/>
<stop offset="1" stop-color="white"/>
</linearGradient>
<linearGradient id="paint9_linear" x1="111.442" y1="-0.730197" x2="111.442" y2="15.2058" gradientUnits="userSpaceOnUse">
<stop stop-color="white" stop-opacity="0.95"/>
<stop offset="1" stop-color="white"/>
</linearGradient>
<linearGradient id="paint10_linear" x1="111.442" y1="-0.730197" x2="111.442" y2="15.2058" gradientUnits="userSpaceOnUse">
<stop stop-color="white" stop-opacity="0.95"/>
<stop offset="1" stop-color="white"/>
</linearGradient>
<linearGradient id="paint11_linear" x1="111.442" y1="-0.730197" x2="111.442" y2="15.2058" gradientUnits="userSpaceOnUse">
<stop stop-color="white" stop-opacity="0.95"/>
<stop offset="1" stop-color="white"/>
</linearGradient>
<linearGradient id="paint12_linear" x1="111.442" y1="-0.730197" x2="111.442" y2="15.2058" gradientUnits="userSpaceOnUse">
<stop stop-color="white" stop-opacity="0.95"/>
<stop offset="1" stop-color="white"/>
</linearGradient>
<linearGradient id="paint13_linear" x1="111.442" y1="-0.730197" x2="111.442" y2="15.2058" gradientUnits="userSpaceOnUse">
<stop stop-color="white" stop-opacity="0.95"/>
<stop offset="1" stop-color="white"/>
</linearGradient>
</defs>
</svg>
