<svg width="92" height="106" viewBox="0 0 92 106" fill="none" xmlns="http://www.w3.org/2000/svg">
<path d="M90.2866 49.3962H59.6616C56.8768 49.3962 54.2061 48.2899 52.2369 46.3208C50.2678 44.3517 49.1616 41.681 49.1616 38.8962V8.27118C49.1616 8.03911 49.0694 7.81656 48.9053 7.65246C48.7412 7.48837 48.5186 7.39618 48.2866 7.39618H36.6381C36.2296 6.6396 35.7537 5.92139 35.2162 5.25024C32.6941 2.11993 28.9469 0.396179 24.6616 0.396179C16.4191 0.396179 10.6616 6.87337 10.6616 16.1462V47.6462C10.6616 53.1149 15.1109 56.3962 19.4116 56.3962C20.5641 56.4088 21.7076 56.191 22.7749 55.7558C23.8422 55.3205 24.8118 54.6765 25.6268 53.8614C26.4418 53.0464 27.0859 52.0768 27.5212 51.0095C27.9564 49.9422 28.1742 48.7987 28.1616 47.6462V14.3962C28.1616 13.4679 27.7928 12.5777 27.1364 11.9213C26.4801 11.2649 25.5898 10.8962 24.6616 10.8962C23.7333 10.8962 22.8431 11.2649 22.1867 11.9213C21.5303 12.5777 21.1616 13.4679 21.1616 14.3962V47.6462C21.1692 47.878 21.1291 48.109 21.0439 48.3248C20.9586 48.5405 20.83 48.7365 20.6659 48.9005C20.5019 49.0646 20.3059 49.1932 20.0902 49.2785C19.8744 49.3637 19.6434 49.4038 19.4116 49.3962C18.9237 49.3962 17.6616 49.0812 17.6616 47.6462V16.1462C17.6616 11.9156 19.5012 7.39618 24.6616 7.39618C31.1562 7.39618 31.6616 13.9915 31.6616 16.0106V46.3621C31.6616 50.1793 30.465 53.6312 28.2906 56.0877C26.0834 58.5837 23.0144 59.8962 19.4116 59.8962C15.8087 59.8962 12.7397 58.5837 10.5325 56.0877C8.35812 53.6312 7.16156 50.1793 7.16156 46.3621V28.3962C7.16156 27.4679 6.79281 26.5777 6.13643 25.9213C5.48006 25.2649 4.58982 24.8962 3.66156 24.8962C2.7333 24.8962 1.84306 25.2649 1.18669 25.9213C0.530309 26.5777 0.16156 27.4679 0.16156 28.3962V46.3621C0.16156 57.6299 7.42187 65.9687 17.6616 66.8218V91.3962C17.6616 95.1092 19.1366 98.6702 21.7621 101.296C24.3876 103.921 27.9485 105.396 31.6616 105.396H77.1616C80.8746 105.396 84.4355 103.921 87.0611 101.296C89.6866 98.6702 91.1616 95.1092 91.1616 91.3962V50.2712C91.1616 50.0391 91.0694 49.8166 90.9053 49.6525C90.7412 49.4884 90.5186 49.3962 90.2866 49.3962Z" fill="#00A29A"/>
<path d="M59.6616 42.3962H88.0575C88.1437 42.3958 88.228 42.37 88.2996 42.3219C88.3712 42.2738 88.427 42.2056 88.4599 42.1258C88.4929 42.0461 88.5016 41.9585 88.4848 41.8738C88.4681 41.7892 88.4267 41.7114 88.3659 41.6502L56.9075 10.1918C56.8463 10.131 56.7685 10.0896 56.6839 10.0729C56.5993 10.0562 56.5116 10.0648 56.4319 10.0978C56.3522 10.1307 56.284 10.1865 56.2359 10.2581C56.1878 10.3297 56.1619 10.414 56.1616 10.5002V38.8962C56.1616 39.8244 56.5303 40.7147 57.1867 41.371C57.8431 42.0274 58.7333 42.3962 59.6616 42.3962Z" fill="#00A29A"/>
</svg>
