<svg width="114" height="105" viewBox="0 0 114 105" fill="none" xmlns="http://www.w3.org/2000/svg">
<path d="M31.4147 22.8751C31.4147 25.3699 31.4147 27.7879 32.2029 30.0523C23.9167 39.7627 1.07814e-08 67.3779 1.07814e-08 67.3779L0.557543 74.344C0.557543 74.344 7.24807 80.6769 8.2478 79.7174C11.2085 76.8388 13.0158 74.8814 13.0158 74.8814L14.4077 66.5623L23.4649 65.8964L24.1916 56.9152L33.7333 56.7329L33.8275 47.1204L43.9575 47.5234L45.6878 43.9079C48.6678 45.1937 51.3786 45.7118 54.8584 45.7118C68.028 45.7118 78.6982 35.4641 78.6982 22.8367C78.6982 10.2094 68.0203 1.08649e-08 54.8507 8.76131e-09C41.6812 6.65774e-09 31.4147 10.2477 31.4147 22.8751ZM67.7031 18.4229C67.7031 19.8975 67.265 21.3389 66.4443 22.565C65.6236 23.791 64.4571 24.7466 63.0923 25.3109C61.7274 25.8752 60.2256 26.0228 58.7768 25.7352C57.3279 25.4475 55.997 24.7374 54.9524 23.6947C53.9079 22.6521 53.1965 21.3236 52.9083 19.8774C52.6201 18.4312 52.768 16.9321 53.3333 15.5698C53.8986 14.2075 54.856 13.0431 56.0843 12.2239C57.3126 11.4046 58.7567 10.9674 60.2339 10.9674C61.2151 10.9664 62.1868 11.1585 63.0934 11.5328C64.0001 11.9072 64.8239 12.4563 65.5177 13.1488C66.2115 13.8413 66.7616 14.6636 67.1366 15.5686C67.5116 16.4736 67.7041 17.4435 67.7031 18.4229Z" fill="#00A29A"/>
<path d="M82.5853 82.1249C82.5853 79.6301 82.5853 77.2121 81.7971 74.9477C90.0833 65.2373 114 37.6221 114 37.6221L113.442 30.656C113.442 30.656 106.752 24.3231 105.752 25.2826C102.791 28.1612 100.984 30.1186 100.984 30.1186L99.5923 38.4377L90.5351 39.1036L89.8084 48.0848L80.2667 48.2671L80.1725 57.8796L70.0425 57.4766L68.3122 61.0921C65.3322 59.8063 62.6214 59.2882 59.1416 59.2882C45.972 59.2882 35.3018 69.5359 35.3018 82.1633C35.3018 94.7906 45.9797 105 59.1493 105C72.3188 105 82.5853 94.7523 82.5853 82.1249ZM46.2969 86.5771C46.2969 85.1025 46.735 83.6611 47.5557 82.435C48.3764 81.209 49.5429 80.2534 50.9078 79.6891C52.2726 79.1248 53.7744 78.9772 55.2232 79.2648C56.6721 79.5525 58.003 80.2626 59.0476 81.3053C60.0922 82.3479 60.8035 83.6764 61.0917 85.1226C61.3799 86.5688 61.232 88.0679 60.6667 89.4302C60.1014 90.7925 59.144 91.9569 57.9157 92.7761C56.6874 93.5954 55.2433 94.0326 53.7661 94.0326C52.7849 94.0336 51.8132 93.8415 50.9066 93.4672C49.9999 93.0928 49.1761 92.5437 48.4823 91.8512C47.7886 91.1587 47.2384 90.3364 46.8634 89.4314C46.4884 88.5264 46.2959 87.5565 46.2969 86.5771Z" fill="#00A29A"/>
</svg>
