<svg width="105" height="104" viewBox="0 0 105 104" fill="none" xmlns="http://www.w3.org/2000/svg">
<path d="M90.9375 18.5591H14.0625C12.5092 18.5591 11.25 19.8055 11.25 21.3429V64.0289C11.25 65.5664 12.5092 66.8128 14.0625 66.8128H90.9375C92.4908 66.8128 93.75 65.5664 93.75 64.0289V21.3429C93.75 19.8055 92.4908 18.5591 90.9375 18.5591Z" fill="#00A29A"/>
<path d="M93.75 7.42365H56.25V3.71182C56.25 2.72739 55.8549 1.78327 55.1517 1.08717C54.4484 0.391066 53.4946 0 52.5 0C51.5054 0 50.5516 0.391066 49.8484 1.08717C49.1451 1.78327 48.75 2.72739 48.75 3.71182V7.42365H11.25C8.26727 7.42672 5.40759 8.6009 3.29848 10.6885C1.18936 12.7762 0.00310217 15.6067 0 18.5591V66.8128C0.00310217 69.7652 1.18936 72.5957 3.29848 74.6834C5.40759 76.771 8.26727 77.9452 11.25 77.9483H21.2789L15.1453 99.1985C14.9989 99.6702 14.9491 100.166 14.9986 100.657C15.0482 101.148 15.1962 101.624 15.4339 102.058C15.6717 102.492 15.9944 102.874 16.3833 103.183C16.7721 103.492 17.2193 103.721 17.6986 103.857C18.178 103.993 18.6798 104.032 19.1748 103.974C19.6699 103.915 20.1482 103.76 20.5817 103.516C21.0152 103.272 21.3953 102.946 21.6998 102.555C22.0042 102.164 22.2268 101.717 22.3547 101.24L29.0789 77.9483H48.75V89.0837C48.75 90.0682 49.1451 91.0123 49.8484 91.7084C50.5516 92.4045 51.5054 92.7956 52.5 92.7956C53.4946 92.7956 54.4484 92.4045 55.1517 91.7084C55.8549 91.0123 56.25 90.0682 56.25 89.0837V77.9483H75.9211L82.6453 101.24C82.7732 101.717 82.9958 102.164 83.3002 102.555C83.6047 102.946 83.9848 103.272 84.4183 103.516C84.8518 103.76 85.3301 103.915 85.8251 103.974C86.3202 104.032 86.8221 103.993 87.3014 103.857C87.7807 103.721 88.2279 103.492 88.6167 103.183C89.0056 102.874 89.3283 102.492 89.5661 102.058C89.8038 101.624 89.9518 101.148 90.0014 100.657C90.0509 100.166 90.0011 99.6702 89.8547 99.1985L83.7211 77.9483H93.75C96.7327 77.9452 99.5924 76.771 101.702 74.6834C103.811 72.5957 104.997 69.7652 105 66.8128V18.5591C104.997 15.6067 103.811 12.7762 101.702 10.6885C99.5924 8.6009 96.7327 7.42672 93.75 7.42365ZM97.5 66.8128C97.5 67.7972 97.1049 68.7414 96.4017 69.4375C95.6984 70.1336 94.7446 70.5246 93.75 70.5246H11.25C10.2554 70.5246 9.30161 70.1336 8.59835 69.4375C7.89509 68.7414 7.5 67.7972 7.5 66.8128V18.5591C7.5 17.5747 7.89509 16.6306 8.59835 15.9345C9.30161 15.2384 10.2554 14.8473 11.25 14.8473H93.75C94.7446 14.8473 95.6984 15.2384 96.4017 15.9345C97.1049 16.6306 97.5 17.5747 97.5 18.5591V66.8128Z" fill="#00A29A"/>
</svg>
