<svg width="112" height="104" viewBox="0 0 112 104" fill="none" xmlns="http://www.w3.org/2000/svg">
<path d="M11.1999 104H7.4666C5.48633 104 3.58718 103.217 2.18692 101.824C0.786658 100.431 0 98.5416 0 96.5714V18.5715C0 16.6013 0.786658 14.7118 2.18692 13.3187C3.58718 11.9255 5.48633 11.1429 7.4666 11.1429H11.1999C13.1802 11.1429 15.0793 11.9255 16.4796 13.3187C17.8798 14.7118 18.6665 16.6013 18.6665 18.5715V96.5714C18.6665 98.5416 17.8798 100.431 16.4796 101.824C15.0793 103.217 13.1802 104 11.1999 104Z" fill="#00A29A"/>
<path d="M52.2662 33.4286C52.2662 31.4584 51.4796 29.5689 50.0793 28.1758C48.679 26.7827 46.7799 26 44.7996 26H29.8664C27.8861 26 25.987 26.7827 24.5867 28.1758C23.1865 29.5689 22.3998 31.4584 22.3998 33.4286V39.9286C22.3998 40.1748 22.4981 40.411 22.6732 40.5852C22.8482 40.7593 23.0856 40.8571 23.3331 40.8571H51.3329C51.5804 40.8571 51.8178 40.7593 51.9928 40.5852C52.1679 40.411 52.2662 40.1748 52.2662 39.9286V33.4286Z" fill="#00A29A"/>
<path d="M22.3998 96.5715C22.3998 98.5416 23.1865 100.431 24.5867 101.824C25.987 103.217 27.8861 104 29.8664 104H44.7996C46.7799 104 48.679 103.217 50.0793 101.824C51.4796 100.431 52.2662 98.5416 52.2662 96.5715V89.6072C52.2662 89.484 52.217 89.3659 52.1295 89.2789C52.042 89.1918 51.9233 89.1429 51.7995 89.1429H22.8665C22.7427 89.1429 22.624 89.1918 22.5365 89.2789C22.449 89.3659 22.3998 89.484 22.3998 89.6072V96.5715Z" fill="#00A29A"/>
<path d="M51.7995 48.2857H22.8665C22.6087 48.2857 22.3998 48.4936 22.3998 48.75V81.25C22.3998 81.5064 22.6087 81.7143 22.8665 81.7143H51.7995C52.0573 81.7143 52.2662 81.5064 52.2662 81.25V48.75C52.2662 48.4936 52.0573 48.2857 51.7995 48.2857Z" fill="#00A29A"/>
<path d="M70.9327 104H63.4661C61.4858 104 59.5867 103.217 58.1864 101.824C56.7862 100.431 55.9995 98.5416 55.9995 96.5714V7.42857C55.9995 5.45839 56.7862 3.56891 58.1864 2.17578C59.5867 0.78265 61.4858 0 63.4661 0H70.9327C72.913 0 74.8121 0.78265 76.2124 2.17578C77.6127 3.56891 78.3993 5.45839 78.3993 7.42857V96.5714C78.3993 98.5416 77.6127 100.431 76.2124 101.824C74.8121 103.217 72.913 104 70.9327 104Z" fill="#00A29A"/>
<path d="M111.973 95.9795L104.453 17.0509C104.108 13.4179 100.5 10.783 96.3961 11.1754L88.9645 11.8718C84.8602 12.2595 81.8129 15.5188 82.1583 19.1518L89.6785 98.0804C90.0239 101.713 93.6312 104.348 97.7355 103.956L105.167 103.259C109.271 102.872 112.319 99.6125 111.973 95.9795Z" fill="#00A29A"/>
</svg>
