<svg width="20" height="20" viewBox="0 0 20 20" fill="none" xmlns="http://www.w3.org/2000/svg">
<circle cx="10.001" cy="10" r="9.25" fill="#F2C94C" stroke="white" stroke-width="1.5"/>
<path d="M6.55762 6.00645H6.45762V6.10645V6.65311C6.45762 7.70552 6.51558 8.64805 6.63191 9.48029L6.63193 9.48044C6.74839 10.3046 6.9367 11.0629 7.19737 11.755L7.19752 11.7554C7.4584 12.4391 7.80473 13.0822 8.23632 13.6847L8.23674 13.6853C8.66764 14.2777 9.19639 14.869 9.82235 15.4592L9.89095 15.5239L9.95955 15.4592C10.5855 14.869 11.11 14.2776 11.5321 13.6849C11.964 13.091 12.3103 12.4476 12.5712 11.755C12.8319 11.0629 13.0202 10.3046 13.1366 9.48044L13.1367 9.48029C13.253 8.64805 13.311 7.70552 13.311 6.65311V6.10645V6.00645H13.211H12.1576H12.0576V6.10645V6.47978C12.0576 7.37473 12.0177 8.17084 11.9383 8.86846L11.9381 8.86958C11.8676 9.55734 11.7443 10.1909 11.5686 10.7707C11.393 11.3412 11.1606 11.8717 10.8715 12.3623L10.8715 12.3623L10.8708 12.3635C10.6069 12.8254 10.2804 13.2843 9.89093 13.7401C9.50089 13.2842 9.16985 12.8251 8.89745 12.3629C8.61691 11.8719 8.38428 11.341 8.19972 10.7699C8.02409 10.1901 7.8964 9.55654 7.81703 8.86894C7.74639 8.17995 7.71095 7.38812 7.71095 6.49311V6.10645V6.00645H7.61095H6.55762Z" fill="white" stroke="white" stroke-width="0.2"/>
</svg>
