<svg width="13" height="9" viewBox="0 0 13 9" fill="none" xmlns="http://www.w3.org/2000/svg">
<path d="M3.40543 4.40625C4.40096 4.40625 5.20799 3.59921 5.20799 2.60369C5.20799 1.60816 4.40096 0.801132 3.40543 0.801132C2.40991 0.801132 1.60287 1.60816 1.60287 2.60369C1.60287 3.59921 2.40991 4.40625 3.40543 4.40625Z" fill="black" fill-opacity="0.8"/>
<path d="M5.45835 5.40768C4.75335 5.04967 3.97525 4.90697 3.40544 4.90697C2.28936 4.90697 0.000610352 5.59144 0.000610352 6.95988V8.01137H3.75594V7.60905C3.75594 7.13337 3.95622 6.65645 4.30672 6.25888C4.58636 5.94143 4.97792 5.64677 5.45835 5.40768Z" fill="black" fill-opacity="0.8"/>
<path d="M8.11211 5.20738C6.80851 5.20738 4.20657 6.01252 4.20657 7.61079V8.8125H12.0177V7.61079C12.0177 6.01252 9.41571 5.20738 8.11211 5.20738Z" fill="black" fill-opacity="0.8"/>
<path d="M8.11212 4.40625C9.32887 4.40625 10.3152 3.41988 10.3152 2.20312C10.3152 0.986373 9.32887 0 8.11212 0C6.89537 0 5.909 0.986373 5.909 2.20312C5.909 3.41988 6.89537 4.40625 8.11212 4.40625Z" fill="black" fill-opacity="0.8"/>
</svg>
