<svg width="17" height="17" viewBox="0 0 17 17" fill="none" xmlns="http://www.w3.org/2000/svg">
<g clip-path="url(#clip0)">
<path d="M1.76435 6.63866L15.0456 1.61204C15.0935 1.59372 15.1457 1.58966 15.1959 1.60035C15.246 1.61105 15.292 1.63604 15.3283 1.67231C15.3646 1.70859 15.3896 1.75458 15.4003 1.80475C15.411 1.85492 15.4069 1.90712 15.3886 1.95503L10.362 15.2363C10.342 15.2867 10.307 15.3298 10.2618 15.3598C10.2166 15.3898 10.1633 15.4052 10.109 15.404C10.0548 15.4027 10.0022 15.3849 9.95839 15.3529C9.91457 15.3209 9.8816 15.2763 9.86392 15.225L7.62603 9.71028C7.59994 9.63213 7.55603 9.56112 7.49777 9.50286C7.43951 9.4446 7.36849 9.40069 7.29034 9.3746L1.77564 7.1387C1.72369 7.12142 1.67835 7.0885 1.64582 7.04446C1.6133 7.00041 1.59518 6.94739 1.59394 6.89266C1.5927 6.83792 1.60841 6.78414 1.63892 6.73867C1.66942 6.6932 1.71323 6.65827 1.76435 6.63866V6.63866Z" stroke="#00A29A" stroke-width="1.5" stroke-linecap="round" stroke-linejoin="round"/>
<path d="M15.274 1.72659L7.53772 9.46292" stroke="#00A29A" stroke-width="1.5" stroke-linecap="round" stroke-linejoin="round"/>
</g>
<defs>
<clipPath id="clip0">
<rect width="17" height="17" fill="white" transform="translate(0.000610352)"/>
</clipPath>
</defs>
</svg>
