<svg width="64" height="21" viewBox="0 0 64 21" fill="none" xmlns="http://www.w3.org/2000/svg">
<path opacity="0.9" d="M9.156 11.224C10.0067 11.3413 10.74 11.5613 11.356 11.884C11.6053 10.7987 11.8033 9.55933 11.95 8.166H10.85C10.5127 9.41267 9.948 10.432 9.156 11.224ZM2.952 9.728H4.514C5.086 9.75733 5.36467 9.464 5.35 8.848V6.648H2.952V9.728ZM0.443999 3.238V1.434H7.66V3.238H0.443999ZM0.267999 18.836V16.724C0.751999 16.724 1.22867 16.7093 1.698 16.68C1.31667 15.6093 1.05267 14.216 0.905999 12.5H2.996C3.084 13.9667 3.31867 15.316 3.7 16.548C3.71467 16.548 3.73667 16.548 3.766 16.548C4.00067 16.5333 4.25 16.504 4.514 16.46C4.89533 15.2427 5.13 13.93 5.218 12.522H7.264C7.088 13.9887 6.83867 15.2133 6.516 16.196L8.254 15.888V17.626C5.89267 18.3447 3.23067 18.748 0.267999 18.836ZM17.868 5.504V3.678H10.586V5.394H8.298V1.896H12.786V0.487999H15.624V1.896H20.178V5.504H17.868ZM0.751999 11.444V4.91H7.506V9.156C7.55 10.7253 6.74333 11.488 5.086 11.444H0.751999ZM7.924 20.332V18.286C9.288 16.7607 10.2413 15.2647 10.784 13.798C10.1093 13.3727 9.39067 13.0573 8.628 12.852V11.73C8.33467 11.9793 8.012 12.2287 7.66 12.478V10.74C8.628 9.508 9.14867 7.78467 9.222 5.57H11.29L11.18 6.428H13.886V8.21C13.6953 13.4753 11.708 17.516 7.924 20.332ZM16.746 19.892C15.1767 19.936 14.414 19.1807 14.458 17.626V6.428H19.914V12.434C19.9873 13.9887 19.2687 14.7293 17.758 14.656H16.988V12.984H17.428C17.8387 12.9987 18.0367 12.7347 18.022 12.192V8.166H16.46V17.076C16.416 17.8533 16.724 18.2127 17.384 18.154H17.714C18.4327 18.1833 18.7773 17.846 18.748 17.142V16.46H20.442V17.538C20.486 19.1513 19.6647 19.936 17.978 19.892H16.746ZM26.984 10.806H35.784C36.664 10.85 37.082 10.432 37.038 9.552V7.286H26.984V10.806ZM22.65 3.502V1.61H41.35V3.502H22.65ZM22.034 19.474V17.582H27.028C26.4267 16.4967 26.0087 15.2207 25.774 13.754H28.414C28.6047 15.206 28.9933 16.482 29.58 17.582H34.222C34.8233 16.438 35.2193 15.162 35.41 13.754H38.05C37.786 15.294 37.3607 16.57 36.774 17.582H41.988V19.474H22.034ZM24.234 12.698V5.416H39.788V9.706C39.832 11.7447 38.8127 12.742 36.73 12.698H24.234ZM45.472 4.888C45.1787 3.48 44.724 2.094 44.108 0.729999H46.418C47.0927 2.02067 47.562 3.40667 47.826 4.888H45.472ZM45.714 10.036C45.4353 8.65733 44.9733 7.24933 44.328 5.812H46.616C47.3053 7.19067 47.7967 8.59867 48.09 10.036H45.714ZM43.8 19.87C44.9293 17.1273 45.6333 14.1793 45.912 11.026H48.134C47.8993 14.3553 47.32 17.3033 46.396 19.87H43.8ZM63.468 19.782C59.4493 17.2593 57.2933 13.3213 57 7.968H59.266C59.3833 9.112 59.5667 10.234 59.816 11.334C60.7547 10.63 61.334 9.508 61.554 7.968H63.512C63.204 10.476 62.1187 12.1113 60.256 12.874C60.8133 14.5607 61.884 16.1887 63.468 17.758V19.782ZM53.48 20.134V5.02H58.892C60.1533 5.064 61.5393 4.81467 63.05 4.272V6.142C61.8913 6.626 60.674 6.85333 59.398 6.824H55.834V17.054C56.538 16.8633 57.4033 16.504 58.43 15.976V17.824C56.9927 18.8213 55.3427 19.5913 53.48 20.134ZM48.2 20.332V18.374C48.728 17.6553 49.0873 16.9 49.278 16.108C49.4687 15.316 49.564 14.216 49.564 12.808V1.478H59.002C60.366 1.50733 61.774 1.28733 63.226 0.818V2.754C61.95 3.12067 60.6593 3.29667 59.354 3.282H52.006V12.324C52.182 16.0787 50.9133 18.748 48.2 20.332Z" fill="url(#paint0_linear)"/>
<defs>
<linearGradient id="paint0_linear" x1="32" y1="-1" x2="32" y2="25" gradientUnits="userSpaceOnUse">
<stop stop-color="white" stop-opacity="0.85"/>
<stop offset="1" stop-color="white"/>
</linearGradient>
</defs>
</svg>
