<svg width="148" height="20" viewBox="0 0 148 20" fill="none" xmlns="http://www.w3.org/2000/svg">
<path opacity="0.9" d="M10.6421 0.323998H12.8821V11.552C12.8821 12.4853 12.9194 13.2133 12.9941 13.736C13.0874 14.2587 13.2367 14.7253 13.4421 15.136C13.7407 15.7333 14.1794 16.2187 14.7581 16.592C15.3554 16.9467 15.9901 17.124 16.6621 17.124C17.3341 17.124 17.9687 16.9467 18.5661 16.592C19.1634 16.2373 19.6114 15.7613 19.9101 15.164C20.0221 14.9587 20.1061 14.7533 20.1621 14.548C20.2367 14.324 20.2927 14.072 20.3301 13.792C20.3674 13.512 20.3954 13.1947 20.4141 12.84C20.4327 12.4667 20.4421 12.028 20.4421 11.524V0.323998H22.6541V11.468C22.6541 12.2707 22.6354 12.952 22.5981 13.512C22.5607 14.072 22.4861 14.5667 22.3741 14.996C22.2621 15.4253 22.1127 15.808 21.9261 16.144C21.7394 16.48 21.5061 16.816 21.2261 17.152C20.6847 17.8053 20.0127 18.328 19.2101 18.72C18.4074 19.0933 17.5674 19.28 16.6901 19.28C14.7114 19.28 13.0687 18.412 11.7621 16.676C10.4367 18.412 8.79406 19.28 6.83406 19.28C5.95673 19.28 5.11673 19.0933 4.31406 18.72C3.5114 18.328 2.8394 17.8053 2.29806 17.152C2.01806 16.816 1.78473 16.48 1.59806 16.144C1.4114 15.808 1.26206 15.4253 1.15006 14.996C1.03806 14.5667 0.963396 14.072 0.926063 13.512C0.888729 12.952 0.870063 12.2707 0.870063 11.468V0.323998H3.08206V11.524C3.08206 12.028 3.0914 12.4667 3.11006 12.84C3.12873 13.1947 3.15673 13.512 3.19406 13.792C3.2314 14.072 3.27806 14.324 3.33406 14.548C3.40873 14.7533 3.50206 14.9587 3.61406 15.164C3.91273 15.7613 4.36073 16.2373 4.95806 16.592C5.5554 16.9467 6.19006 17.124 6.86206 17.124C7.53406 17.124 8.1594 16.9467 8.73806 16.592C9.3354 16.2187 9.7834 15.7333 10.0821 15.136C10.2874 14.7253 10.4274 14.2587 10.5021 13.736C10.5954 13.2133 10.6421 12.4853 10.6421 11.552V0.323998ZM31.6322 5.28C32.6028 5.28 33.5082 5.46667 34.3482 5.84C35.1882 6.19467 35.9162 6.69867 36.5322 7.352C37.1668 7.98667 37.6615 8.73333 38.0162 9.592C38.3895 10.4507 38.5762 11.3747 38.5762 12.364C38.5762 13.2973 38.3895 14.184 38.0162 15.024C37.6428 15.864 37.1388 16.6013 36.5042 17.236C35.8695 17.852 35.1228 18.3467 34.2642 18.72C33.4242 19.0747 32.5282 19.252 31.5762 19.252C30.6055 19.252 29.6908 19.0747 28.8322 18.72C27.9922 18.3467 27.2548 17.8427 26.6202 17.208C25.9855 16.5733 25.4815 15.836 25.1082 14.996C24.7535 14.1373 24.5762 13.2227 24.5762 12.252C24.5762 11.2813 24.7535 10.376 25.1082 9.536C25.4815 8.67733 25.9855 7.94 26.6202 7.324C27.2735 6.68933 28.0202 6.19467 28.8602 5.84C29.7188 5.46667 30.6428 5.28 31.6322 5.28ZM31.6042 7.156C30.8948 7.156 30.2322 7.296 29.6162 7.576C29.0188 7.83733 28.4868 8.20133 28.0202 8.668C27.5722 9.116 27.2175 9.65733 26.9562 10.292C26.6948 10.908 26.5642 11.5707 26.5642 12.28C26.5642 12.9893 26.6948 13.652 26.9562 14.268C27.2175 14.884 27.5722 15.4253 28.0202 15.892C28.4868 16.34 29.0188 16.704 29.6162 16.984C30.2322 17.2453 30.8855 17.376 31.5762 17.376C32.2482 17.376 32.8828 17.2453 33.4802 16.984C34.0962 16.7227 34.6282 16.368 35.0762 15.92C35.5428 15.4533 35.9068 14.9213 36.1682 14.324C36.4482 13.708 36.5882 13.064 36.5882 12.392C36.5882 11.664 36.4575 10.9827 36.1962 10.348C35.9348 9.71333 35.5802 9.16267 35.1322 8.696C34.6842 8.21067 34.1522 7.83733 33.5362 7.576C32.9388 7.296 32.2948 7.156 31.6042 7.156ZM40.1386 12.28C40.1386 11.664 40.1666 11.1133 40.2226 10.628C40.2786 10.1427 40.3626 9.704 40.4746 9.312C40.6053 8.90133 40.764 8.528 40.9506 8.192C41.156 7.856 41.3986 7.52933 41.6786 7.212C42.2386 6.596 42.892 6.12 43.6386 5.784C44.404 5.448 45.2253 5.28 46.1026 5.28C46.98 5.28 47.792 5.448 48.5386 5.784C49.304 6.12 49.9666 6.596 50.5266 7.212C50.8066 7.52933 51.04 7.856 51.2266 8.192C51.432 8.528 51.5906 8.90133 51.7026 9.312C51.8333 9.704 51.9266 10.1427 51.9826 10.628C52.0386 11.1133 52.0666 11.664 52.0666 12.28V19H50.1626V12.112C50.1626 11.216 50.06 10.4693 49.8546 9.872C49.668 9.27467 49.36 8.76133 48.9306 8.332C48.1093 7.548 47.1666 7.156 46.1026 7.156C45.4493 7.156 44.824 7.324 44.2266 7.66C43.6293 7.97733 43.144 8.40667 42.7706 8.948C42.2853 9.65733 42.0426 10.712 42.0426 12.112V19H40.1386V12.28ZM65.6927 0.323998H67.6247V10.656C67.6247 11.3653 67.5967 12 67.5407 12.56C67.4847 13.12 67.4007 13.6333 67.2887 14.1C67.1767 14.548 67.0274 14.968 66.8407 15.36C66.6541 15.752 66.4301 16.1253 66.1687 16.48C65.5341 17.3387 64.7221 18.02 63.7327 18.524C62.7621 19.0093 61.7261 19.252 60.6247 19.252C59.6727 19.252 58.7674 19.0747 57.9087 18.72C57.0687 18.3467 56.3314 17.8427 55.6967 17.208C55.0621 16.5733 54.5581 15.836 54.1847 14.996C53.8301 14.1373 53.6527 13.2227 53.6527 12.252C53.6527 11.2813 53.8301 10.376 54.1847 9.536C54.5581 8.67733 55.0527 7.94 55.6687 7.324C56.3034 6.68933 57.0407 6.19467 57.8807 5.84C58.7394 5.46667 59.6541 5.28 60.6247 5.28C61.4647 5.28 62.2207 5.392 62.8927 5.616C63.5647 5.84 64.2554 6.22267 64.9647 6.764V9.172C64.2554 8.48133 63.5461 7.97733 62.8367 7.66C62.1274 7.324 61.3807 7.156 60.5967 7.156C59.9247 7.156 59.2807 7.296 58.6647 7.576C58.0674 7.83733 57.5447 8.20133 57.0967 8.668C56.6487 9.116 56.2941 9.65733 56.0327 10.292C55.7714 10.908 55.6407 11.5707 55.6407 12.28C55.6407 12.9893 55.7714 13.652 56.0327 14.268C56.2941 14.884 56.6487 15.4253 57.0967 15.892C57.5634 16.34 58.0954 16.704 58.6927 16.984C59.3087 17.2453 59.9621 17.376 60.6527 17.376C61.4741 17.376 62.2674 17.1707 63.0327 16.76C63.7981 16.3493 64.3954 15.7987 64.8247 15.108C64.9927 14.8467 65.1327 14.5853 65.2447 14.324C65.3567 14.044 65.4407 13.7267 65.4967 13.372C65.5714 13.0173 65.6181 12.6253 65.6367 12.196C65.6741 11.748 65.6927 11.2253 65.6927 10.628V0.323998ZM81.442 17.992C80.4527 18.44 79.566 18.7667 78.782 18.972C77.998 19.1587 77.186 19.252 76.346 19.252C75.3193 19.252 74.358 19.0747 73.462 18.72C72.5847 18.3653 71.8193 17.8707 71.166 17.236C70.5127 16.6013 69.9993 15.8547 69.626 14.996C69.2527 14.1373 69.066 13.2133 69.066 12.224C69.066 11.272 69.2433 10.376 69.598 9.536C69.9713 8.67733 70.4753 7.94 71.11 7.324C71.7447 6.68933 72.482 6.19467 73.322 5.84C74.1807 5.46667 75.0953 5.28 76.066 5.28C77.41 5.28 78.6047 5.59733 79.65 6.232C80.714 6.86667 81.5727 7.79067 82.226 9.004L72.986 16.228C73.5273 16.6573 74.0407 16.956 74.526 17.124C75.03 17.292 75.6553 17.376 76.402 17.376C76.7567 17.376 77.0927 17.3573 77.41 17.32C77.746 17.2827 78.0913 17.2173 78.446 17.124C78.8007 17.012 79.174 16.8813 79.566 16.732C79.958 16.564 80.406 16.3587 80.91 16.116L81.442 17.992ZM79.622 8.696C79.1367 8.09867 78.614 7.66933 78.054 7.408C77.5127 7.128 76.8593 6.988 76.094 6.988C75.3847 6.988 74.722 7.128 74.106 7.408C73.49 7.66933 72.9487 8.04267 72.482 8.528C72.034 8.99467 71.6793 9.55467 71.418 10.208C71.1567 10.8427 71.026 11.524 71.026 12.252C71.026 12.5133 71.0353 12.756 71.054 12.98C71.0913 13.1853 71.138 13.3907 71.194 13.596C71.25 13.7827 71.3247 13.9787 71.418 14.184C71.53 14.3893 71.6607 14.6133 71.81 14.856L79.622 8.696ZM83.4253 12.616C83.4253 11.9813 83.444 11.4213 83.4813 10.936C83.5187 10.4507 83.584 10.012 83.6773 9.62C83.7707 9.228 83.892 8.88267 84.0413 8.584C84.2093 8.26667 84.4053 7.94933 84.6293 7.632C85.1707 6.904 85.8613 6.33467 86.7013 5.924C87.5413 5.49467 88.4187 5.28 89.3333 5.28C89.4267 5.28 89.5293 5.28 89.6413 5.28C89.7533 5.28 89.8933 5.28933 90.0613 5.308V7.24C89.912 7.22133 89.772 7.212 89.6413 7.212C89.5293 7.19333 89.436 7.184 89.3613 7.184C88.7453 7.184 88.1573 7.33333 87.5973 7.632C87.0373 7.912 86.5707 8.304 86.1973 8.808C85.88 9.256 85.656 9.76 85.5253 10.32C85.3947 10.88 85.3293 11.6453 85.3293 12.616V19H83.4253V12.616ZM91.3283 0.323998H96.3683C97.0963 0.323998 97.7403 0.351999 98.3003 0.407999C98.879 0.463999 99.4016 0.547999 99.8683 0.659999C100.335 0.771999 100.755 0.921332 101.128 1.108C101.52 1.29467 101.894 1.528 102.248 1.808C103.07 2.424 103.704 3.19867 104.152 4.132C104.619 5.06533 104.852 6.04533 104.852 7.072C104.852 8.04267 104.666 8.948 104.292 9.788C103.938 10.6093 103.443 11.328 102.808 11.944C102.174 12.56 101.418 13.0453 100.54 13.4C99.6816 13.736 98.7483 13.904 97.7403 13.904C97.143 13.904 96.5923 13.8573 96.0883 13.764C95.603 13.6707 95.0336 13.5213 94.3803 13.316V11.02C95.0336 11.2813 95.603 11.468 96.0883 11.58C96.5736 11.692 97.0963 11.748 97.6563 11.748C98.3843 11.748 99.0563 11.636 99.6723 11.412C100.288 11.1693 100.82 10.8427 101.268 10.432C101.716 10.0213 102.062 9.536 102.304 8.976C102.566 8.416 102.696 7.8 102.696 7.128C102.696 6.4 102.519 5.7 102.164 5.028C101.828 4.33733 101.371 3.80533 100.792 3.432C100.307 3.11467 99.7376 2.88133 99.0843 2.732C98.431 2.564 97.6376 2.48 96.7043 2.48H93.5403V19H91.3283V0.323998ZM117.783 17.992C116.794 18.44 115.907 18.7667 115.123 18.972C114.339 19.1587 113.527 19.252 112.687 19.252C111.661 19.252 110.699 19.0747 109.803 18.72C108.926 18.3653 108.161 17.8707 107.507 17.236C106.854 16.6013 106.341 15.8547 105.967 14.996C105.594 14.1373 105.407 13.2133 105.407 12.224C105.407 11.272 105.585 10.376 105.939 9.536C106.313 8.67733 106.817 7.94 107.451 7.324C108.086 6.68933 108.823 6.19467 109.663 5.84C110.522 5.46667 111.437 5.28 112.407 5.28C113.751 5.28 114.946 5.59733 115.991 6.232C117.055 6.86667 117.914 7.79067 118.567 9.004L109.327 16.228C109.869 16.6573 110.382 16.956 110.867 17.124C111.371 17.292 111.997 17.376 112.743 17.376C113.098 17.376 113.434 17.3573 113.751 17.32C114.087 17.2827 114.433 17.2173 114.787 17.124C115.142 17.012 115.515 16.8813 115.907 16.732C116.299 16.564 116.747 16.3587 117.251 16.116L117.783 17.992ZM115.963 8.696C115.478 8.09867 114.955 7.66933 114.395 7.408C113.854 7.128 113.201 6.988 112.435 6.988C111.726 6.988 111.063 7.128 110.447 7.408C109.831 7.66933 109.29 8.04267 108.823 8.528C108.375 8.99467 108.021 9.55467 107.759 10.208C107.498 10.8427 107.367 11.524 107.367 12.252C107.367 12.5133 107.377 12.756 107.395 12.98C107.433 13.1853 107.479 13.3907 107.535 13.596C107.591 13.7827 107.666 13.9787 107.759 14.184C107.871 14.3893 108.002 14.6133 108.151 14.856L115.963 8.696ZM131.611 17.992C130.621 18.44 129.735 18.7667 128.951 18.972C128.167 19.1587 127.355 19.252 126.515 19.252C125.488 19.252 124.527 19.0747 123.631 18.72C122.753 18.3653 121.988 17.8707 121.335 17.236C120.681 16.6013 120.168 15.8547 119.795 14.996C119.421 14.1373 119.235 13.2133 119.235 12.224C119.235 11.272 119.412 10.376 119.767 9.536C120.14 8.67733 120.644 7.94 121.279 7.324C121.913 6.68933 122.651 6.19467 123.491 5.84C124.349 5.46667 125.264 5.28 126.235 5.28C127.579 5.28 128.773 5.59733 129.819 6.232C130.883 6.86667 131.741 7.79067 132.395 9.004L123.155 16.228C123.696 16.6573 124.209 16.956 124.695 17.124C125.199 17.292 125.824 17.376 126.571 17.376C126.925 17.376 127.261 17.3573 127.579 17.32C127.915 17.2827 128.26 17.2173 128.615 17.124C128.969 17.012 129.343 16.8813 129.735 16.732C130.127 16.564 130.575 16.3587 131.079 16.116L131.611 17.992ZM129.791 8.696C129.305 8.09867 128.783 7.66933 128.223 7.408C127.681 7.128 127.028 6.988 126.263 6.988C125.553 6.988 124.891 7.128 124.275 7.408C123.659 7.66933 123.117 8.04267 122.651 8.528C122.203 8.99467 121.848 9.55467 121.587 10.208C121.325 10.8427 121.195 11.524 121.195 12.252C121.195 12.5133 121.204 12.756 121.223 12.98C121.26 13.1853 121.307 13.3907 121.363 13.596C121.419 13.7827 121.493 13.9787 121.587 14.184C121.699 14.3893 121.829 14.6133 121.979 14.856L129.791 8.696ZM133.594 12.616C133.594 11.9813 133.613 11.4213 133.65 10.936C133.687 10.4507 133.753 10.012 133.846 9.62C133.939 9.228 134.061 8.88267 134.21 8.584C134.378 8.26667 134.574 7.94933 134.798 7.632C135.339 6.904 136.03 6.33467 136.87 5.924C137.71 5.49467 138.587 5.28 139.502 5.28C139.595 5.28 139.698 5.28 139.81 5.28C139.922 5.28 140.062 5.28933 140.23 5.308V7.24C140.081 7.22133 139.941 7.212 139.81 7.212C139.698 7.19333 139.605 7.184 139.53 7.184C138.914 7.184 138.326 7.33333 137.766 7.632C137.206 7.912 136.739 8.304 136.366 8.808C136.049 9.256 135.825 9.76 135.694 10.32C135.563 10.88 135.498 11.6453 135.498 12.616V19H133.594V12.616ZM138.456 17.236C138.624 17.2733 138.755 17.3013 138.848 17.32C138.942 17.32 139.044 17.32 139.156 17.32C139.623 17.32 140.043 17.208 140.416 16.984C140.808 16.7413 141.107 16.4053 141.312 15.976C141.424 15.7333 141.518 15.5093 141.592 15.304C141.667 15.08 141.732 14.8093 141.788 14.492C141.844 14.1747 141.891 13.7733 141.928 13.288C141.966 12.8027 142.012 12.168 142.068 11.384C142.199 9.38667 142.647 7.86533 143.412 6.82C144.178 5.77467 145.232 5.252 146.576 5.252C146.819 5.252 147.136 5.28 147.528 5.336V7.212C147.398 7.17467 147.295 7.156 147.22 7.156C147.146 7.13733 147.062 7.128 146.968 7.128C145.942 7.128 145.195 7.52933 144.728 8.332C144.616 8.556 144.523 8.78 144.448 9.004C144.374 9.20933 144.308 9.46133 144.252 9.76C144.196 10.04 144.15 10.404 144.112 10.852C144.075 11.2813 144.028 11.832 143.972 12.504C143.898 13.6427 143.776 14.5667 143.608 15.276C143.44 15.9667 143.188 16.6013 142.852 17.18C142.479 17.8333 141.984 18.3373 141.368 18.692C140.771 19.028 140.099 19.196 139.352 19.196C139.203 19.196 139.063 19.1867 138.932 19.168C138.82 19.168 138.662 19.1493 138.456 19.112V17.236Z" fill="url(#paint0_linear)"/>
<defs>
<linearGradient id="paint0_linear" x1="73.0314" y1="5.27778" x2="73.0314" y2="18.5" gradientUnits="userSpaceOnUse">
<stop stop-color="white" stop-opacity="0.9"/>
<stop offset="1" stop-color="white"/>
</linearGradient>
</defs>
</svg>
